# xmcd
#
# Track frame offsets: 
#        150
#        14982
#        27856
#        42322
#        56491
#        66900
#        78776
#        88716
#        101710
#        117929
#        133370
#        146025
#        158825
#        173860
#        182917
#        194732
#        205497
#        215720
#        227400
#        254827
#
# Disc length: 3543 seconds
#
# Revision: 0
# Processed by: cddbd v1.5.2PL0 Copyright (c) Steve Scherf et al.
# Submitted via: ExactAudioCopy v0.90b4
#
DISCID=380dd514
DTITLE=Stompin' Tom - The Country Hits [CD1]
DYEAR=2014
DGENRE=Country
TTITLE0=Lone Gone To The Yukon
TTITLE1=Old Atlantic Shore
TTITLE2=Big Joe Mufferaw
TTITLE3=Lady K.D. Lang
TTITLE4=Smowmobile Song
TTITLE5=Canada Day Up Canada Way 
TTITLE6=The Hockey Song
TTITLE7=Hockey Mom Tribute
TTITLE8=I Am The Wind
TTITLE9=Tillsonburg
TTITLE10=The Consumer
TTITLE11=A Real Canadian Girl
TTITLE12=Margo's Cargo
TTITLE13=The Ketchup Song
TTITLE14=Luke's Guitar
TTITLE15=Moon Man Newfie
TTITLE16=Sudbury Saturday Night
TTITLE17=Red River Jane
TTITLE18=I've Been Everywhere
TTITLE19=Bud The Spud
EXTD=
EXTT0=
EXTT1=
EXTT2=
EXTT3=
EXTT4=
EXTT5=
EXTT6=
EXTT7=
EXTT8=
EXTT9=
EXTT10=
EXTT11=
EXTT12=
EXTT13=
EXTT14=
EXTT15=
EXTT16=
EXTT17=
EXTT18=
EXTT19=
PLAYORDER=
